<?xml version="1.0" encoding="UTF-8" standalone="no"?>
<!-- Created with Inkscape (http://www.inkscape.org/) -->

<svg
   width="600"
   height="600"
   viewBox="0 0 158.75 158.75"
   version="1.1"
   id="svg1"
   xml:space="preserve"
   xmlns="http://www.w3.org/2000/svg"
   xmlns:svg="http://www.w3.org/2000/svg"><defs
     id="defs1" /><g
     id="layer3"
     transform="translate(-151.13904,-13.291728)"><path
       style="fill:none;stroke:#7c58cc;stroke-width:6;stroke-linecap:round"
       d="m 287.35877,137.85803 c -2.26076,-5.73727 -8.54117,-9.48192 -14.2627,-11.78223 -9.68178,-3.89251 -18.50923,-4.6801 -26.87174,-9.09505 -7.3971,-3.90527 -14.38578,-8.93487 -20.05046,-15.08952 -2.01306,-2.187188 -4.75423,-7.544752 -4.75423,-7.544752 0,0 -11.66731,2.380268 -16.2264,5.891102 -4.88376,3.76086 -10.31618,9.00483 -10.54199,15.19288 -0.24217,6.63653 4.24458,12.58856 8.80768,17.87021 3.29938,3.81893 7.45107,6.84427 11.54687,9.79293 3.28208,2.36284 10.37758,6.28501 10.37758,6.28501 0,0 15.95797,6.47158 24.40923,7.16198 9.149,0.7474 18.88281,0.22518 27.33248,-3.36174 3.63514,-1.54313 7.28059,-4.00766 9.20827,-7.45432 1.29079,-2.30791 1.99486,-5.40627 1.02541,-7.8665 z"
       id="path1" /><path
       style="fill:none;stroke:#7c58cc;stroke-width:6;stroke-linecap:round"
       d="m 222.75244,93.690497 c 8.33322,-1.625958 17.07633,-2.355896 24.41961,2.261601 2.27302,1.42929 7.29746,2.787086 8.02858,-0.653811 1.51148,-7.113527 -6.48631,-13.847504 -12.57002,-17.831886 -7.28198,-4.769158 -17.24898,-7.789831 -25.57853,-5.261869 -4.84614,1.47077 -8.48443,6.247481 -10.6699,10.816063 -2.22198,4.644898 -1.75396,15.347116 -1.75396,15.347116 0,0 -7.9145,-3.409941 -12.27769,-3.361744 -5.51612,0.06093 -9.53233,2.169523 -12.86234,5.418423 -3.31303,3.23233 -4.6935,8.14312 -5.70465,12.65994 -0.7583,3.38731 -0.75529,6.9891 -0.17815,10.41193 0.70516,4.18207 2.40844,8.1902 4.37709,11.94671 2.1503,4.10313 4.81976,7.99772 8.00939,11.35714 1.55497,1.63774 3.22074,3.37134 5.32692,4.1863 2.03902,0.78896 4.70187,1.65479 6.54186,0.47391 0.82407,-0.52888 0.93302,-1.77739 1.02745,-2.75201 0.77626,-8.01222 -3.3363,-15.34625 -3.9464,-23.82458 -0.44905,-6.24029 -2.16578,-13.32507 0.91675,-18.76941 2.1146,-3.73479 9.93908,-8.185133 9.93908,-8.185133 0,0 11.23716,-3.123096 16.95491,-4.23873 z"
       id="path8" /><path
       style="fill:none;stroke:#7c58cc;stroke-width:6;stroke-linecap:round"
       d="m 210.83984,76.481119 c 0,0 -6.77322,-22.290444 -11.57552,-32.86621 0,0 -4.29861,-13.557992 -10.12858,-14.882813 -4.05416,-0.921281 -8.77317,0.48846 -10.97618,5.923536 -1.95336,4.218959 -3.11814,8.315666 -3.69992,12.67998 -1.44785,10.861277 -1.45093,22.10636 0.62011,32.86621 1.14166,5.931353 6.40788,16.94987 6.40788,16.94987"
       id="path10" /><path
       style="fill:none;stroke:#7c58cc;stroke-width:6;stroke-linecap:round"
       d="m 285.31021,142.94744 c 0,0 -27.57,-1.22645 -40.04866,-6.43118 -8.68819,-3.62376 -15.9038,-10.25641 -22.80143,-16.66258 -6.28064,-5.83314 -16.66259,-19.58585 -16.66259,-19.58585"
       id="path11" /></g></svg>
